<?xml version="1.0" standalone="no"?>
<!DOCTYPE svg PUBLIC "-//W3C//DTD SVG 20010904//EN"
 "http://www.w3.org/TR/2001/REC-SVG-20010904/DTD/svg10.dtd">
<svg version="1.0" xmlns="http://www.w3.org/2000/svg"
 width="1024.000000pt" height="1024.000000pt" viewBox="0 0 1024.000000 1024.000000"
 preserveAspectRatio="xMidYMid meet">
<metadata>
Created by potrace 1.14, written by Peter Selinger 2001-2017
</metadata>
<g transform="translate(0.000000,1024.000000) scale(0.100000,-0.100000)"
fill="#000000" stroke="none">
<path d="M5045 8489 c-76 -8 -219 -57 -290 -100 -30 -18 -138 -101 -238 -184
-101 -82 -203 -166 -227 -185 -23 -19 -47 -39 -54 -45 -6 -5 -34 -28 -61 -50
-28 -22 -61 -50 -75 -61 -14 -12 -119 -99 -235 -194 -115 -94 -221 -182 -235
-193 -14 -12 -72 -60 -130 -107 -58 -47 -321 -263 -585 -481 -264 -217 -507
-417 -541 -444 -84 -69 -358 -294 -539 -443 -82 -68 -159 -131 -170 -141 -28
-22 -125 -102 -150 -123 -11 -9 -101 -83 -200 -164 -99 -81 -219 -179 -266
-218 -47 -39 -107 -89 -134 -111 -71 -58 -93 -85 -108 -130 -24 -69 -9 -137
40 -190 10 -11 76 -92 147 -180 160 -200 183 -229 224 -275 72 -83 177 -97
252 -33 28 24 192 160 481 398 107 88 239 197 294 243 55 46 107 88 115 95
146 119 186 153 190 157 3 3 41 35 85 70 44 35 82 67 85 70 3 3 82 68 175 145
94 76 186 153 206 169 19 17 55 47 80 67 24 20 116 96 204 169 88 72 178 146
200 164 22 19 137 113 255 211 118 98 235 194 259 214 25 20 58 48 75 62 17
14 141 117 276 228 135 111 254 210 265 219 162 137 302 246 331 258 50 21
133 20 183 -3 22 -10 140 -101 263 -203 123 -101 286 -236 363 -300 77 -64
322 -266 545 -450 223 -184 470 -388 550 -454 162 -134 291 -240 520 -430 85
-70 164 -135 175 -144 11 -10 83 -69 160 -132 77 -63 149 -123 160 -132 140
-118 863 -712 877 -719 36 -19 105 -17 145 5 33 19 159 165 338 392 17 21 54
67 82 102 29 35 57 80 62 100 13 44 -1 115 -31 157 -11 17 -99 93 -195 170
-96 77 -180 145 -186 150 -7 6 -34 28 -62 50 -27 22 -59 48 -70 57 -22 18
-303 247 -320 260 -5 4 -31 25 -56 45 -25 21 -125 102 -222 181 l-177 143 0
1057 c0 663 -4 1070 -10 1092 -12 43 -62 94 -110 113 -28 11 -126 13 -495 12
-498 -1 -490 0 -541 -57 -50 -54 -48 -37 -50 -643 -1 -313 -3 -572 -3 -573 -1
-4 -31 20 -216 173 -60 50 -260 215 -444 366 -184 151 -418 343 -520 427 -264
217 -309 245 -446 282 -78 22 -179 29 -270 19z"/>
<path d="M5067 6765 c-26 -6 -55 -19 -65 -27 -9 -8 -28 -24 -42 -36 -14 -11
-54 -44 -90 -74 -36 -30 -132 -110 -215 -178 -82 -68 -184 -152 -225 -186 -41
-34 -329 -272 -640 -529 -311 -256 -583 -481 -605 -499 -22 -19 -175 -145
-340 -281 -308 -254 -443 -367 -529 -439 -27 -22 -55 -45 -62 -51 -11 -8 -13
-233 -11 -1280 2 -1199 3 -1272 20 -1306 24 -48 72 -96 116 -117 33 -15 121
-16 946 -17 l910 0 45 25 c52 29 105 95 119 148 7 24 11 308 11 795 0 737 1
759 21 812 26 69 81 119 151 136 70 16 1041 15 1112 -2 35 -8 61 -24 91 -54
77 -76 74 -40 75 -903 l0 -767 26 -52 c31 -65 93 -120 148 -131 42 -9 1799 -9
1826 0 69 23 115 62 146 125 18 37 19 84 22 1308 l2 1270 -177 145 c-97 80
-181 150 -187 155 -6 6 -33 28 -61 50 -27 22 -52 43 -55 46 -3 3 -108 90 -235
194 -126 104 -232 192 -235 195 -3 3 -41 34 -85 70 -44 36 -91 75 -105 86 -14
12 -54 46 -90 75 -313 259 -599 495 -620 513 -14 11 -115 95 -225 186 -110 91
-209 172 -220 181 -329 273 -479 394 -505 406 -38 18 -109 22 -163 8z"/>
</g>
</svg>
